<?xml version="1.0" encoding="utf-8"?>
<!DOCTYPE svg PUBLIC "-//W3C//DTD SVG 1.1//EN" "http://www.w3.org/Graphics/SVG/1.1/DTD/svg11.dtd">
<svg version="1.1"
     xmlns="http://www.w3.org/2000/svg"
     xmlns:xlink="http://www.w3.org/1999/xlink"
     x="0px"
     y="0px"
     width="784.077px"
     height="458.627px"
     viewBox="30.767 241.591 784.077 458.627"
     id="world-map">
<title>Simple World Map</title>
<desc>
    Author: Al MacDonald
    Editor: Fritz Lekschas
    License: CC BY-SA 3.0
    ID: ISO 3166-1 or "_[a-zA-Z]" if an ISO code is not available
</desc>
<g>
    <path id="_somaliland" d="M512.674,502.797l3.526,2.403l1.046-0.052l8.757-3.008l0.994,3.206l-0.701,2.706l-1.893,1.503l-4.729-0.302l-6.769-4.158L512.674,502.797L512.674,502.797z"/>
    <path id="ae" d="M528.466,468.135l0.753,3.008l8.522,0.752l0.596-6.172l1.644-0.897l0.448-2.257l-2.688,0.753l-2.99,4.521L528.466,468.135L528.466,468.135z"/>
    <path id="af" d="M545.85,435.383l1.374,10.771l3.423,0.752l0.32,1.937l-2.455,2.049l4.573,3.691l8.885-3.198l0.709-3.786l5.593-3.491l2.145-8.091l1.599-1.722l-1.659-2.887l5.412-3.347l-0.691-0.968l-2.498,0.155l-0.226,2.299l-3.354-0.033l-0.062-3.068l-1.079-1.288l-1.815,1.649l0.052,1.515l-2.739,1.036l-5.059-0.319l-6.568,6.881L545.85,435.383L545.85,435.383z"/>
    <path id="al" d="M450.679,420.438v3.984l1.142,2.152l0.82-0.096l1.409-2.566l-0.821-1.15l-0.319-2.844l-1.089-1.012L450.679,420.438L450.679,420.438z"/>
    <path id="am" d="M507.47,420.549l4.149,5.411l-1.218,1.427l-2.939-0.51l-3.646-3.268l0.196-2.146L507.47,420.549L507.47,420.549z"/>
    <g id="ao">
        <path class="mainland" d="M437.366,547.461l2.948,11.003l-0.069,3.478l-4.313,4.633l-0.647,7.527l16.597,0.147l5.395,1.954l4.45-0.58l-2.594-3.251l0.01-9.282l5.101-0.217v-3.621l-4.142-0.172l-0.829-8.575l-1.746,0.024l-0.943-0.848l-1.027,0.054l-1.365,2.646h-5.255l-1.22-1.227l0.363-1.738l-1.436-2.101L437.366,547.461L437.366,547.461z"/>
        <path d="M435.577,544.453l1.504,1.953l1.945-1.842l-0.571-1.909l-0.483-0.035L435.577,544.453L435.577,544.453z"/>
    </g>
    <g id="ar">
        <path class="mainland" d="M279.05,600.613l1.677,1.571l-6.371,9.467l-2.239,2.479l0.777,10.813l4.918,5.974l-4.132,7.209l-3.129,1.35h-3.579l1.003,5.627l-5.593,1.92l1.34,4.729l-3.354,10.701l4.141,3.38l-2.239,5.515l-3.804,5.975l2.014,4.165l-4.918,0.786l-4.028-4.951l-0.674-15.432l-6.258-26.209l1.893-9.163l-4.028-11.713l2.68-15.204l2.463-2.931l-0.605-2.222l3.164-2.888l7.054,0.483l3.942,4.21l4.555,0.078l4.668,2.853l-1.375,3.217l0.329,3.25l6.612-0.312L279.05,600.613L279.05,600.613z"/>
        <path d="M264.745,687.564l0.225,4.951l3.803-0.337l3.242-2.144l-5.48-1.124L264.745,687.564L264.745,687.564z"/>
    </g>
    <path id="at" d="M430.46,403.459l-0.562,1.167l0.483,0.83l2.015-0.415h1.711l1.857,1.572l3.95-0.717l2.904-1.729l0.743-1.167l-0.112-1.504l-2.611-1.954l-3.501,0.035l-0.294,1.988l-3.683,1.797L430.46,403.459L430.46,403.459z"/>
    <g id="au">
        <path class="mainland" d="M672.961,609.067l-0.303,21.938l-3.371,2.472l-0.303,2.161l4.598,3.086l11.35-2.161h5.826l2.145-3.095l12.879-2.472l9.198,2.784l-0.614,3.708l1.228,3.708l7.055-1.236l0.303,1.851l-4.599,3.396l1.53,1.236l3.37-1.236l-0.917,10.2l6.44,4.944l3.683-1.236l1.841,1.852l10.735-1.548l10.123-16.381l3.682-0.925l7.357-13.596l1.841-11.739l-4.599-5.869l1.842-1.236l-3.684-11.436l-3.984-2.783l0.614-15.448l-3.684-2.782l-0.916-8.652h-1.842l-6.138,20.392l-3.37,0.312l-7.668-7.728l4.297-11.437l-7.971-1.547l-8.896,2.472l-2.454,7.104l-3.984,0.925l-0.304-4.944l-16.252,9.889l0.304,3.708l-2.454,3.397h-6.139l-13.19,5.56L672.961,609.067L672.961,609.067z"/>
        <path d="M728.775,668.089l-1.531,6.181l0.304,4.322l4.599-0.312l5.213-8.03L728.775,668.089L728.775,668.089z"/>
    </g>
    <path id="az" d="M508.931,418.674l-0.873,1.486l4.071,5.342l1.418-0.458l2.334,2.446l1.011-4.287l2.533,0.406l-0.104-1.229l-4.165-3.646l-0.795,2.143L508.931,418.674L508.931,418.674z"/>
    <path id="ba" d="M442.708,411.084l-0.319,0.527l5.801,5.981l2.127-3.13l-0.078-1.234l-1.857-2.256L442.708,411.084L442.708,411.084z"/>
    <path id="bd" d="M616.256,457.908l-1.134,2.049l2.938,5.584l0.087,4.357l0.535,1.166l3.449,0.061l1.953-1.875l1.418,0.855l0.285,2.652l1.133-0.708l0.069-3.389l-0.951-0.112l-0.596-2.879l-2.403-0.086l-0.596-1.6l1.469-1.962l0.024-0.97h-4.269L616.256,457.908L616.256,457.908z"/>
    <path id="be" d="M414.019,391.704l-0.554,1.383l5.947,3.925l0.4,0.051l0.375-1.094l0.837-0.588l-1.336-1.499h-0.916l-1.255-1.426L414.019,391.704L414.019,391.704z"/>
    <path id="bf" d="M404.493,493.496l3.146-0.25l5.16,7.295l-4.789,3.613l-3.466-0.892l-4.66,0.062l-0.752,2.73l-3.907,0.19l-1.071-1.461l1.385-4.442L404.493,493.496L404.493,493.496z"/>
    <path id="bg" d="M457.092,414.066l0.139,4.305l1.452,3.025l5.454,0.095l2.455-1.737l2.412-0.959l-0.588-2.75l0.545-1.469l-1.228-0.641l-1.687,0.139l-1.323,1.332l-5.549,0.043L457.092,414.066L457.092,414.066z"/>
    <path id="bi" d="M478.504,538.385l3.691-0.078l-0.959,3.232l-0.935,0.812h-1.142l-0.812-2.187L478.504,538.385L478.504,538.385z"/>
    <path id="bj" d="M411.512,515.288h1.833l0.104-5.204l2.315-3.363l-0.104-5.852l-2.102-0.052l-3.604,2.816l1.504,2.87L411.512,515.288L411.512,515.288z"/>
    <path id="bn" d="M689.239,497.636l2.426-1.793l-0.536-1.939l-1.792,0.27L689.239,497.636L689.239,497.636z"/>
    <g id="bo">
        <path class="mainland" d="M295.603,584.246l-1.456,4.049l2.287,1.625l0.683,4.832l-1.893,1.64l-0.448,3.496l-3.028,0.34l-2.463,3.985l-1.118,0.419l-1.118-1.428l-3.692-1.337l-2.015,0.418l-1.229,5.926l0.894,2.094l-2.463,0.419l-3.917-1.849l-1.006-1.849l4.812-1.256l0.558-6.344l4.59-0.838l2.57,2.932l3.581-1.675l0.782-2.932l-0.671-2.514l1.341-2.932l-0.559-1.256l1.341-1.675l-1.006-2.514l1.006-0.837L295.603,584.246L295.603,584.246z"/>
        <path d="M295.375,584.246l1.341-0.837l-0.559-1.256l1.341-1.675l-0.671-2.514l0.782-2.932l3.581-1.675l2.57,2.932l4.59-0.838l0.558-6.344l4.812-1.256l-1.006-1.849l-3.917-1.849l-2.463,0.419l0.894,2.094l-1.229,5.926l-2.015,0.418l-3.692-1.337l-1.118-1.428l-1.118,0.419l-2.463,3.985l-3.028,0.34l-0.448,3.496l-1.893,1.64l0.683,4.832l2.287,1.625l-1.456,4.049L295.375,584.246L295.375,584.246z"/>
    </g>
    <path id="br" d="M319.95,561.469l0.446,1.256l-1.341,2.514l0.559,1.256l-1.341,1.675l0.671,2.514l-0.782,2.932l-3.581,1.675l-2.57-2.932l-4.59,0.838l-0.558,6.344l-4.812,1.256l1.006,1.849l3.917,1.849l2.463-0.419l-0.894-2.094l1.229-5.926l2.015-0.418l3.692,1.337l1.118,1.428l1.118-0.419l2.463-3.985l3.028-0.34l0.448-3.496l1.893-1.64l-0.683-4.832l-2.287-1.625l1.456-4.049L319.95,561.469L319.95,561.469z"/>
    <path id="bs" d="M192.342,499.429l-0.894,1.793l1.789,2.688l1.342-0.448L192.342,499.429L192.342,499.429z"/>
    <path id="bt" d="M635.028,470.506l-0.639,1.166l0.428,0.837l1.995,0.23l0.518-1.066l-0.665-0.9L635.028,470.506L635.028,470.506z"/>
    <path id="bw" d="M465.944,570.624l-0.892,2.236l0.922,3.143l3.447,0.895l2.3-0.067l0.319-0.949l-0.057-0.061l-1.369-2.236l-0.808-1.067l-1.284-0.174l-1.076-0.062L465.944,570.624L465.944,570.624z"/>
    <path id="by" d="M455.752,391.704l-0.139,4.305l1.452,3.025l5.454,0.095l2.455-1.737l2.412-0.959l-0.588-2.75l0.545-1.469l-1.228-0.641l-1.687,0.139l-1.323,1.332l-5.549,0.043L455.752,391.704L455.752,391.704z"/>
    <path id="bz" d="M207.057,523.379l1.341,1.793l0.894-0.448l-0.894-1.793L207.057,523.379L207.057,523.379z"/>
    <g id="ca">
        <path class="mainland" d="M120.987,334.067l-0.671,1.793l1.789,2.688l1.342-0.448l-0.894-1.793l-0.894-0.448l0.447-1.793L120.987,334.067L120.987,334.067z"/>
        <path d="M119.646,335.86l0.447,1.793l0.894,0.448l0.894,1.793l-1.342,0.448l-1.789-2.688l0.671-1.793L119.646,335.86L119.646,335.86z"/>
    </g>
    <path id="cf" d="M449.56,522.484l0.104,5.204l1.833-0.052l0.104-5.852l-2.315-3.363l-1.833,0.052L449.56,522.484L449.56,522.484z"/>
    <path id="cg" d="M437.366,547.461l2.948,11.003l-0.069,3.478l-4.313,4.633l-0.647,7.527l16.597,0.147l5.395,1.954l4.45-0.58l-2.594-3.251l0.01-9.282l5.101-0.217v-3.621l-4.142-0.172l-0.829-8.575l-1.746,0.024l-0.943-0.848l-1.027,0.054l-1.365,2.646h-5.255l-1.22-1.227l0.363-1.738l-1.436-2.101L437.366,547.461L437.366,547.461z"/>
    <path id="ch" d="M424.675,402.563l-0.562,1.167l0.483,0.83l2.015-0.415h1.711l1.857,1.572l3.95-0.717l2.904-1.729l0.743-1.167l-0.112-1.504l-2.611-1.954l-3.501,0.035l-0.294,1.988l-3.683,1.797L424.675,402.563L424.675,402.563z"/>
    <path id="ci" d="M404.493,493.496l3.146-0.25l5.16,7.295l-4.789,3.613l-3.466-0.892l-4.66,0.062l-0.752,2.73l-3.907,0.19l-1.071-1.461l1.385-4.442L404.493,493.496L404.493,493.496z"/>
    <path id="cl" d="M262.282,684.633l5.48,1.124l-3.242,2.144l-3.803,0.337l-0.225-4.951L262.282,684.633L262.282,684.633z"/>
    <path id="cm" d="M435.577,544.453l1.504,1.953l1.945-1.842l-0.571-1.909l-0.483-0.035L435.577,544.453L435.577,544.453z"/>
    <g id="cn">
        <path class="mainland" d="M599.341,415.293l0.139,4.305l1.452,3.025l5.454,0.095l2.455-1.737l2.412-0.959l-0.588-2.75l0.545-1.469l-1.228-0.641l-1.687,0.139l-1.323,1.332l-5.549,0.043L599.341,415.293L599.341,415.293z"/>
        <path d="M597.902,416.881l0.545,1.469l-0.588-2.75l2.412-0.959l2.455-1.737l5.454,0.095l1.452,3.025l0.139,4.305l-1.687,0.139l-1.323,1.332l-5.549,0.043l-0.588-2.75l2.412-0.959l2.455-1.737l5.454,0.095l1.452,3.025l0.139,4.305l-1.687,0.139l-1.323,1.332l-5.549,0.043L597.902,416.881L597.902,416.881z"/>
    </g>
    <path id="co" d="M223.171,534.192l0.894,0.448l0.894,1.793l-1.342,0.448l-1.789-2.688L223.171,534.192L223.171,534.192z"/>
    <path id="cr" d="M208.398,525.172l0.894,0.448l-0.894,1.793l-1.341-1.793L208.398,525.172L208.398,525.172z"/>
    <path id="cu" d="M193.683,502.117l1.342,0.448l-0.894-1.793l0.894-0.448L193.683,502.117L193.683,502.117z"/>
    <path id="cv" d="M360.069,484.031l0.894,1.793l1.342-0.448l-0.894-1.793L360.069,484.031L360.069,484.031z"/>
    <path id="cy" d="M484.69,432.695l-0.139,4.305l1.452,3.025l5.454,0.095l2.455-1.737l2.412-0.959l-0.588-2.75l0.545-1.469l-1.228-0.641l-1.687,0.139l-1.323,1.332l-5.549,0.043L484.69,432.695L484.69,432.695z"/>
    <path id="cz" d="M436.246,400.77l-0.562,1.167l0.483,0.83l2.015-0.415h1.711l1.857,1.572l3.95-0.717l2.904-1.729l0.743-1.167l-0.112-1.504l-2.611-1.954l-3.501,0.035l-0.294,1.988l-3.683,1.797L436.246,400.77L436.246,400.77z"/>
    <path id="de" d="M419.234,390.809l-0.554,1.383l5.947,3.925l0.4,0.051l0.375-1.094l0.837-0.588l-1.336-1.499h-0.916l-1.255-1.426L419.234,390.809L419.234,390.809z"/>
    <path id="dj" d="M512.674,502.797l3.526,2.403l1.046-0.052l8.757-3.008l0.994,3.206l-0.701,2.706l-1.893,1.503l-4.729-0.302l-6.769-4.158L512.674,502.797L512.674,502.797z"/>
    <path id="dk" d="M420.575,372.523l-0.554,1.383l5.947,3.925l0.4,0.051l0.375-1.094l0.837-0.588l-1.336-1.499h-0.916l-1.255-1.426L420.575,372.523L420.575,372.523z"/>
    <path id="do" d="M192.342,499.429l-0.894,1.793l1.789,2.688l1.342-0.448L192.342,499.429L192.342,499.429z"/>
    <path id="dz" d="M411.512,515.288h1.833l0.104-5.204l2.315-3.363l-0.104-5.852l-2.102-0.052l-3.604,2.816l1.504,2.87L411.512,515.288L411.512,515.288z"/>
    <path id="ec" d="M223.171,534.192l0.894,0.448l0.894,1.793l-1.342,0.448l-1.789-2.688L223.171,534.192L223.171,534.192z"/>
    <path id="ee" d="M455.752,391.704l-0.139,4.305l1.452,3.025l5.454,0.095l2.455-1.737l2.412-0.959l-0.588-2.75l0.545-1.469l-1.228-0.641l-1.687,0.139l-1.323,1.332l-5.549,0.043L455.752,391.704L455.752,391.704z"/>
    <path id="eg" d="M457.092,414.066l0.139,4.305l1.452,3.025l5.454,0.095l2.455-1.737l2.412-0.959l-0.588-2.75l0.545-1.469l-1.228-0.641l-1.687,0.139l-1.323,1.332l-5.549,0.043L457.092,414.066L457.092,414.066z"/>
    <path id="eh" d="M360.069,484.031l0.894,1.793l1.342-0.448l-0.894-1.793L360.069,484.031L360.069,484.031z"/>
    <path id="er" d="M512.674,502.797l3.526,2.403l1.046-0.052l8.757-3.008l0.994,3.206l-0.701,2.706l-1.893,1.503l-4.729-0.302l-6.769-4.158L512.674,502.797L512.674,502.797z"/>
    <path id="es" d="M414.019,391.704l-0.554,1.383l5.947,3.925l0.4,0.051l0.375-1.094l0.837-0.588l-1.336-1.499h-0.916l-1.255-1.426L414.019,391.704L414.019,391.704z"/>
    <path id="et" d="M512.674,502.797l3.526,2.403l1.046-0.052l8.757-3.008l0.994,3.206l-0.701,2.706l-1.893,1.503l-4.729-0.302l-6.769-4.158L512.674,502.797L512.674,502.797z"/>
    <g id="fi">
        <path class="mainland" d="M455.752,391.704l-0.139,4.305l1.452,3.025l5.454,0.095l2.455-1.737l2.412-0.959l-0.588-2.75l0.545-1.469l-1.228-0.641l-1.687,0.139l-1.323,1.332l-5.549,0.043L455.752,391.704L455.752,391.704z"/>
        <path d="M457.092,414.066l0.139,4.305l1.452,3.025l5.454,0.095l2.455-1.737l2.412-0.959l-0.588-2.75l0.545-1.469l-1.228-0.641l-1.687,0.139l-1.323,1.332l-5.549,0.043L457.092,414.066L457.092,414.066z"/>
    </g>
    <path id="fj" d="M728.775,668.089l-1.531,6.181l0.304,4.322l4.599-0.312l5.213-8.03L728.775,668.089L728.775,668.089z"/>
    <path id="fm" d="M728.775,668.089l-1.531,6.181l0.304,4.322l4.599-0.312l5.213-8.03L728.775,668.089L728.775,668.089z"/>
    <path id="fr" d="M414.019,391.704l-0.554,1.383l5.947,3.925l0.4,0.051l0.375-1.094l0.837-0.588l-1.336-1.499h-0.916l-1.255-1.426L414.019,391.704L414.019,391.704z"/>
    <path id="ga" d="M435.577,544.453l1.504,1.953l1.945-1.842l-0.571-1.909l-0.483-0.035L435.577,544.453L435.577,544.453z"/>
    <path id="gb" d="M414.019,391.704l-0.554,1.383l5.947,3.925l0.4,0.051l0.375-1.094l0.837-0.588l-1.336-1.499h-0.916l-1.255-1.426L414.019,391.704L414.019,391.704z"/>
    <path id="gd" d="M192.342,499.429l-0.894,1.793l1.789,2.688l1.342-0.448L192.342,499.429L192.342,499.429z"/>
    <path id="ge" d="M507.47,420.549l4.149,5.411l-1.218,1.427l-2.939-0.51l-3.646-3.268l0.196-2.146L507.47,420.549L507.47,420.549z"/>
    <path id="gf" d="M319.95,561.469l0.446,1.256l-1.341,2.514l0.559,1.256l-1.341,1.675l0.671,2.514l-0.782,2.932l-3.581,1.675l-2.57-2.932l-4.59,0.838l-0.558,6.344l-4.812,1.256l1.006,1.849l3.917,1.849l2.463-0.419l-0.894-2.094l1.229-5.926l2.015-0.418l3.692,1.337l1.118,1.428l1.118-0.419l2.463-3.985l3.028-0.34l0.448-3.496l1.893-1.64l-0.683-4.832l-2.287-1.625l1.456-4.049L319.95,561.469L319.95,561.469z"/>
    <path id="gh" d="M404.493,493.496l3.146-0.25l5.16,7.295l-4.789,3.613l-3.466-0.892l-4.66,0.062l-0.752,2.73l-3.907,0.19l-1.071-1.461l1.385-4.442L404.493,493.496L404.493,493.496z"/>
    <path id="gn" d="M404.493,493.496l3.146-0.25l5.16,7.295l-4.789,3.613l-3.466-0.892l-4.66,0.062l-0.752,2.73l-3.907,0.19l-1.071-1.461l1.385-4.442L404.493,493.496L404.493,493.496z"/>
    <path id="gp" d="M192.342,499.429l-0.894,1.793l1.789,2.688l1.342-0.448L192.342,499.429L192.342,499.429z"/>
    <path id="gq" d="M435.577,544.453l1.504,1.953l1.945-1.842l-0.571-1.909l-0.483-0.035L435.577,544.453L435.577,544.453z"/>
    <path id="gr" d="M450.679,420.438v3.984l1.142,2.152l0.82-0.096l1.409-2.566l-0.821-1.15l-0.319-2.844l-1.089-1.012L450.679,420.438L450.679,420.438z"/>
    <path id="gt" d="M207.057,523.379l1.341,1.793l0.894-0.448l-0.894-1.793L207.057,523.379L207.057,523.379z"/>
    <path id="gw" d="M404.493,493.496l3.146-0.25l5.16,7.295l-4.789,3.613l-3.466-0.892l-4.66,0.062l-0.752,2.73l-3.907,0.19l-1.071-1.461l1.385-4.442L404.493,493.496L404.493,493.496z"/>
    <path id="gy" d="M319.95,561.469l0.446,1.256l-1.341,2.514l0.559,1.256l-1.341,1.675l0.671,2.514l-0.782,2.932l-3.581,1.675l-2.57-2.932l-4.59,0.838l-0.558,6.344l-4.812,1.256l1.006,1.849l3.917,1.849l2.463-0.419l-0.894-2.094l1.229-5.926l2.015-0.418l3.692,1.337l1.118,1.428l1.118-0.419l2.463-3.985l3.028-0.34l0.448-3.496l1.893-1.64l-0.683-4.832l-2.287-1.625l1.456-4.049L319.95,561.469L319.95,561.469z"/>
    <path id="hk" d="M635.028,470.506l-0.639,1.166l0.428,0.837l1.995,0.23l0.518-1.066l-0.665-0.9L635.028,470.506L635.028,470.506z"/>
    <path id="hn" d="M208.398,525.172l0.894,0.448l-0.894,1.793l-1.341-1.793L208.398,525.172L208.398,525.172z"/>
    <path id="hr" d="M442.708,411.084l-0.319,0.527l5.801,5.981l2.127-3.13l-0.078-1.234l-1.857-2.256L442.708,411.084L442.708,411.084z"/>
    <path id="ht" d="M193.683,502.117l1.342,0.448l-0.894-1.793l0.894-0.448L193.683,502.117L193.683,502.117z"/>
    <path id="hu" d="M442.708,411.084l-0.319,0.527l5.801,5.981l2.127-3.13l-0.078-1.234l-1.857-2.256L442.708,411.084L442.708,411.084z"/>
    <path id="id" d="M689.239,497.636l2.426-1.793l-0.536-1.939l-1.792,0.27L689.239,497.636L689.239,497.636z"/>
    <path id="ie" d="M414.019,391.704l-0.554,1.383l5.947,3.925l0.4,0.051l0.375-1.094l0.837-0.588l-1.336-1.499h-0.916l-1.255-1.426L414.019,391.704L414.019,391.704z"/>
    <path id="il" d="M484.69,432.695l-0.139,4.305l1.452,3.025l5.454,0.095l2.455-1.737l2.412-0.959l-0.588-2.75l0.545-1.469l-1.228-0.641l-1.687,0.139l-1.323,1.332l-5.549,0.043L484.69,432.695L484.69,432.695z"/>
    <path id="in" d="M616.256,457.908l-1.134,2.049l2.938,5.584l0.087,4.357l0.535,1.166l3.449,0.061l1.953-1.875l1.418,0.855l0.285,2.652l1.133-0.708l0.069-3.389l-0.951-0.112l-0.596-2.879l-2.403-0.086l-0.596-1.6l1.469-1.962l0.024-0.97h-4.269L616.256,457.908L616.256,457.908z"/>
    <path id="iq" d="M507.47,420.549l4.149,5.411l-1.218,1.427l-2.939-0.51l-3.646-3.268l0.196-2.146L507.47,420.549L507.47,420.549z"/>
    <path id="ir" d="M545.85,435.383l1.374,10.771l3.423,0.752l0.32,1.937l-2.455,2.049l4.573,3.691l8.885-3.198l0.709-3.786l5.593-3.491l2.145-8.091l1.599-1.722l-1.659-2.887l5.412-3.347l-0.691-0.968l-2.498,0.155l-0.226,2.299l-3.354-0.033l-0.062-3.068l-1.079-1.288l-1.815,1.649l0.052,1.515l-2.739,1.036l-5.059-0.319l-6.568,6.881L545.85,435.383L545.85,435.383z"/>
    <path id="is" d="M360.069,484.031l0.894,1.793l1.342-0.448l-0.894-1.793L360.069,484.031L360.069,484.031z"/>
    <path id="it" d="M430.46,403.459l-0.562,1.167l0.483,0.83l2.015-0.415h1.711l1.857,1.572l3.95-0.717l2.904-1.729l0.743-1.167l-0.112-1.504l-2.611-1.954l-3.501,0.035l-0.294,1.988l-3.683,1.797L430.46,403.459L430.46,403.459z"/>
    <path id="jm" d="M193.683,502.117l1.342,0.448l-0.894-1.793l0.894-0.448L193.683,502.117L193.683,502.117z"/>
    <path id="jo" d="M484.69,432.695l-0.139,4.305l1.452,3.025l5.454,0.095l2.455-1.737l2.412-0.959l-0.588-2.75l0.545-1.469l-1.228-0.641l-1.687,0.139l-1.323,1.332l-5.549,0.043L484.69,432.695L484.69,432.695z"/>
    <path id="jp" d="M635.028,470.506l-0.639,1.166l0.428,0.837l1.995,0.23l0.518-1.066l-0.665-0.9L635.028,470.506L635.028,470.506z"/>
    <path id="ke" d="M478.504,538.385l3.691-0.078l-0.959,3.232l-0.935,0.812h-1.142l-0.812-2.187L478.504,538.385L478.504,538.385z"/>
    <path id="kg" d="M545.85,435.383l1.374,10.771l3.423,0.752l0.32,1.937l-2.455,2.049l4.573,3.691l8.885-3.198l0.709-3.786l5.593-3.491l2.145-8.091l1.599-1.722l-1.659-2.887l5.412-3.347l-0.691-0.968l-2.498,0.155l-0.226,2.299l-3.354-0.033l-0.062-3.068l-1.079-1.288l-1.815,1.649l0.052,1.515l-2.739,1.036l-5.059-0.319l-6.568,6.881L545.85,435.383L545.85,435.383z"/>
    <path id="kh" d="M689.239,497.636l2.426-1.793l-0.536-1.939l-1.792,0.27L689.239,497.636L689.239,497.636z"/>
    <path id="ki" d="M728.775,668.089l-1.531,6.181l0.304,4.322l4.599-0.312l5.213-8.03L728.775,668.089L728.775,668.089z"/>
    <path id="km" d="M478.504,538.385l3.691-0.078l-0.959,3.232l-0.935,0.812h-1.142l-0.812-2.187L478.504,538.385L478.504,538.385z"/>
    <path id="kn" d="M192.342,499.429l-0.894,1.793l1.789,2.688l1.342-0.448L192.342,499.429L192.342,499.429z"/>
    <path id="kp" d="M635.028,470.506l-0.639,1.166l0.428,0.837l1.995,0.23l0.518-1.066l-0.665-0.9L635.028,470.506L635.028,470.506z"/>
    <path id="kr" d="M635.028,470.506l-0.639,1.166l0.428,0.837l1.995,0.23l0.518-1.066l-0.665-0.9L635.028,470.506L635.028,470.506z"/>
    <path id="kw" d="M528.466,468.135l0.753,3.008l8.522,0.752l0.596-6.172l1.644-0.897l0.448-2.257l-2.688,0.753l-2.99,4.521L528.466,468.135L528.466,468.135z"/>
    <path id="kz" d="M545.85,435.383l1.374,10.771l3.423,0.752l0.32,1.937l-2.455,2.049l4.573,3.691l8.885-3.198l0.709-3.786l5.593-3.491l2.145-8.091l1.599-1.722l-1.659-2.887l5.412-3.347l-0.691-0.968l-2.498,0.155l-0.226,2.299l-3.354-0.033l-0.062-3.068l-1.079-1.288l-1.815,1.649l0.052,1.515l-2.739,1.036l-5.059-0.319l-6.568,6.881L545.85,435.383L545.85,435.383z"/>
    <path id="la" d="M689.239,497.636l2.426-1.793l-0.536-1.939l-1.792,0.27L689.239,497.636L689.239,497.636z"/>
    <path id="lb" d="M484.69,432.695l-0.139,4.305l1.452,3.025l5.454,0.095l2.455-1.737l2.412-0.959l-0.588-2.75l0.545-1.469l-1.228-0.641l-1.687,0.139l-1.323,1.332l-5.549,0.043L484.69,432.695L484.69,432.695z"/>
    <path id="lc" d="M192.342,499.429l-0.894,1.793l1.789,2.688l1.342-0.448L192.342,499.429L192.342,499.429z"/>
    <path id="li" d="M430.46,403.459l-0.562,1.167l0.483,0.83l2.015-0.415h1.711l1.857,1.572l3.95-0.717l2.904-1.729l0.743-1.167l-0.112-1.504l-2.611-1.954l-3.501,0.035l-0.294,1.988l-3.683,1.797L430.46,403.459L430.46,403.459z"/>
    <path id="lk" d="M616.256,457.908l-1.134,2.049l2.938,5.584l0.087,4.357l0.535,1.166l3.449,0.061l1.953-1.875l1.418,0.855l0.285,2.652l1.133-0.708l0.069-3.389l-0.951-0.112l-0.596-2.879l-2.403-0.086l-0.596-1.6l1.469-1.962l0.024-0.97h-4.269L616.256,457.908L616.256,457.908z"/>
    <path id="lr" d="M404.493,493.496l3.146-0.25l5.16,7.295l-4.789,3.613l-3.466-0.892l-4.66,0.062l-0.752,2.73l-3.907,0.19l-1.071-1.461l1.385-4.442L404.493,493.496L404.493,493.496z"/>
    <path id="ls" d="M465.944,570.624l-0.892,2.236l0.922,3.143l3.447,0.895l2.3-0.067l0.319-0.949l-0.057-0.061l-1.369-2.236l-0.808-1.067l-1.284-0.174l-1.076-0.062L465.944,570.624L465.944,570.624z"/>
    <path id="lt" d="M455.752,391.704l-0.139,4.305l1.452,3.025l5.454,0.095l2.455-1.737l2.412-0.959l-0.588-2.75l0.545-1.469l-1.228-0.641l-1.687,0.139l-1.323,1.332l-5.549,0.043L455.752,391.704L455.752,391.704z"/>
    <path id="lu" d="M414.019,391.704l-0.554,1.383l5.947,3.925l0.4,0.051l0.375-1.094l0.837-0.588l-1.336-1.499h-0.916l-1.255-1.426L414.019,391.704L414.019,391.704z"/>
    <path id="lv" d="M455.752,391.704l-0.139,4.305l1.452,3.025l5.454,0.095l2.455-1.737l2.412-0.959l-0.588-2.75l0.545-1.469l-1.228-0.641l-1.687,0.139l-1.323,1.332l-5.549,0.043L455.752,391.704L455.752,391.704z"/>
    <path id="ly" d="M411.512,515.288h1.833l0.104-5.204l2.315-3.363l-0.104-5.852l-2.102-0.052l-3.604,2.816l1.504,2.87L411.512,515.288L411.512,515.288z"/>
    <path id="ma" d="M360.069,484.031l0.894,1.793l1.342-0.448l-0.894-1.793L360.069,484.031L360.069,484.031z"/>
    <path id="mc" d="M430.46,403.459l-0.562,1.167l0.483,0.83l2.015-0.415h1.711l1.857,1.572l3.95-0.717l2.904-1.729l0.743-1.167l-0.112-1.504l-2.611-1.954l-3.501,0.035l-0.294,1.988l-3.683,1.797L430.46,403.459L430.46,403.459z"/>
    <path id="md" d="M457.092,414.066l0.139,4.305l1.452,3.025l5.454,0.095l2.455-1.737l2.412-0.959l-0.588-2.75l0.545-1.469l-1.228-0.641l-1.687,0.139l-1.323,1.332l-5.549,0.043L457.092,414.066L457.092,414.066z"/>
    <path id="me" d="M450.679,420.438v3.984l1.142,2.152l0.82-0.096l1.409-2.566l-0.821-1.15l-0.319-2.844l-1.089-1.012L450.679,420.438L450.679,420.438z"/>
    <path id="mg" d="M478.504,538.385l3.691-0.078l-0.959,3.232l-0.935,0.812h-1.142l-0.812-2.187L478.504,538.385L478.504,538.385z"/>
    <path id="mh" d="M728.775,668.089l-1.531,6.181l0.304,4.322l4.599-0.312l5.213-8.03L728.775,668.089L728.775,668.089z"/>
    <path id="mk" d="M450.679,420.438v3.984l1.142,2.152l0.82-0.096l1.409-2.566l-0.821-1.15l-0.319-2.844l-1.089-1.012L450.679,420.438L450.679,420.438z"/>
    <path id="ml" d="M404.493,493.496l3.146-0.25l5.16,7.295l-4.789,3.613l-3.466-0.892l-4.66,0.062l-0.752,2.73l-3.907,0.19l-1.071-1.461l1.385-4.442L404.493,493.496L404.493,493.496z"/>
    <path id="mm" d="M616.256,457.908l-1.134,2.049l2.938,5.584l0.087,4.357l0.535,1.166l3.449,0.061l1.953-1.875l1.418,0.855l0.285,2.652l1.133-0.708l0.069-3.389l-0.951-0.112l-0.596-2.879l-2.403-0.086l-0.596-1.6l1.469-1.962l0.024-0.97h-4.269L616.256,457.908L616.256,457.908z"/>
    <path id="mn" d="M599.341,415.293l0.139,4.305l1.452,3.025l5.454,0.095l2.455-1.737l2.412-0.959l-0.588-2.75l0.545-1.469l-1.228-0.641l-1.687,0.139l-1.323,1.332l-5.549,0.043L599.341,415.293L599.341,415.293z"/>
    <path id="mo" d="M635.028,470.506l-0.639,1.166l0.428,0.837l1.995,0.23l0.518-1.066l-0.665-0.9L635.028,470.506L635.028,470.506z"/>
    <path id="mq" d="M192.342,499.429l-0.894,1.793l1.789,2.688l1.342-0.448L192.342,499.429L192.342,499.429z"/>
    <path id="mr" d="M360.069,484.031l0.894,1.793l1.342-0.448l-0.894-1.793L360.069,484.031L360.069,484.031z"/>
    <path id="mu" d="M478.504,538.385l3.691-0.078l-0.959,3.232l-0.935,0.812h-1.142l-0.812-2.187L478.504,538.385L478.504,538.385z"/>
    <path id="mv" d="M616.256,457.908l-1.134,2.049l2.938,5.584l0.087,4.357l0.535,1.166l3.449,0.061l1.953-1.875l1.418,0.855l0.285,2.652l1.133-0.708l0.069-3.389l-0.951-0.112l-0.596-2.879l-2.403-0.086l-0.596-1.6l1.469-1.962l0.024-0.97h-4.269L616.256,457.908L616.256,457.908z"/>
    <path id="mw" d="M478.504,538.385l3.691-0.078l-0.959,3.232l-0.935,0.812h-1.142l-0.812-2.187L478.504,538.385L478.504,538.385z"/>
    <path id="mx" d="M207.057,523.379l1.341,1.793l0.894-0.448l-0.894-1.793L207.057,523.379L207.057,523.379z"/>
    <path id="my" d="M689.239,497.636l2.426-1.793l-0.536-1.939l-1.792,0.27L689.239,497.636L689.239,497.636z"/>
    <path id="mz" d="M478.504,538.385l3.691-0.078l-0.959,3.232l-0.935,0.812h-1.142l-0.812-2.187L478.504,538.385L478.504,538.385z"/>
    <path id="na" d="M465.944,570.624l-0.892,2.236l0.922,3.143l3.447,0.895l2.3-0.067l0.319-0.949l-0.057-0.061l-1.369-2.236l-0.808-1.067l-1.284-0.174l-1.076-0.062L465.944,570.624L465.944,570.624z"/>
    <path id="ne" d="M411.512,515.288h1.833l0.104-5.204l2.315-3.363l-0.104-5.852l-2.102-0.052l-3.604,2.816l1.504,2.87L411.512,515.288L411.512,515.288z"/>
    <path id="ng" d="M449.56,522.484l0.104,5.204l1.833-0.052l0.104-5.852l-2.315-3.363l-1.833,0.052L449.56,522.484L449.56,522.484z"/>
    <path id="ni" d="M208.398,525.172l0.894,0.448l-0.894,1.793l-1.341-1.793L208.398,525.172L208.398,525.172z"/>
    <path id="nl" d="M414.019,391.704l-0.554,1.383l5.947,3.925l0.4,0.051l0.375-1.094l0.837-0.588l-1.336-1.499h-0.916l-1.255-1.426L414.019,391.704L414.019,391.704z"/>
    <path id="no" d="M420.575,372.523l-0.554,1.383l5.947,3.925l0.4,0.051l0.375-1.094l0.837-0.588l-1.336-1.499h-0.916l-1.255-1.426L420.575,372.523L420.575,372.523z"/>
    <path id="np" d="M616.256,457.908l-1.134,2.049l2.938,5.584l0.087,4.357l0.535,1.166l3.449,0.061l1.953-1.875l1.418,0.855l0.285,2.652l1.133-0.708l0.069-3.389l-0.951-0.112l-0.596-2.879l-2.403-0.086l-0.596-1.6l1.469-1.962l0.024-0.97h-4.269L616.256,457.908L616.256,457.908z"/>
    <path id="nr" d="M728.775,668.089l-1.531,6.181l0.304,4.322l4.599-0.312l5.213-8.03L728.775,668.089L728.775,668.089z"/>
    <path id="nz" d="M728.775,668.089l-1.531,6.181l0.304,4.322l4.599-0.312l5.213-8.03L728.775,668.089L728.775,668.089z"/>
    <path id="om" d="M528.466,468.135l0.753,3.008l8.522,0.752l0.596-6.172l1.644-0.897l0.448-2.257l-2.688,0.753l-2.99,4.521L528.466,468.135L528.466,468.135z"/>
    <path id="pa" d="M223.171,534.192l0.894,0.448l0.894,1.793l-1.342,0.448l-1.789-2.688L223.171,534.192L223.171,534.192z"/>
    <path id="pe" d="M295.603,584.246l-1.456,4.049l2.287,1.625l0.683,4.832l-1.893,1.64l-0.448,3.496l-3.028,0.34l-2.463,3.985l-1.118,0.419l-1.118-1.428l-3.692-1.337l-2.015,0.418l-1.229,5.926l0.894,2.094l-2.463,0.419l-3.917-1.849l-1.006-1.849l4.812-1.256l0.558-6.344l4.59-0.838l2.57,2.932l3.581-1.675l0.782-2.932l-0.671-2.514l1.341-2.932l-0.559-1.256l1.341-1.675l-0.559-1.256l1.341-2.514l-0.446-1.256L295.603,584.246L295.603,584.246z"/>
    <path id="pf" d="M728.775,668.089l-1.531,6.181l0.304,4.322l4.599-0.312l5.213-8.03L728.775,668.089L728.775,668.089z"/>
    <path id="pg" d="M672.961,609.067l-0.303,21.938l-3.371,2.472l-0.303,2.161l4.598,3.086l11.35-2.161h5.826l2.145-3.095l12.879-2.472l9.198,2.784l-0.614,3.708l1.228,3.708l7.055-1.236l0.303,1.851l-4.599,3.396l1.53,1.236l3.37-1.236l-0.917,10.2l6.44,4.944l3.683-1.236l1.841,1.852l10.735-1.548l10.123-16.381l3.682-0.925l7.357-13.596l1.841-11.739l-4.599-5.869l1.842-1.236l-3.684-11.436l-3.984-2.783l0.614-15.448l-3.684-2.782l-0.916-8.652h-1.842l-6.138,20.392l-3.37,0.312l-7.668-7.728l4.297-11.437l-7.971-1.547l-8.896,2.472l-2.454,7.104l-3.984,0.925l-0.304-4.944l-16.252,9.889l0.304,3.708l-2.454,3.397h-6.139l-13.19,5.56L672.961,609.067L672.961,609.067z"/>
    <path id="ph" d="M689.239,497.636l2.426-1.793l-0.536-1.939l-1.792,0.27L689.239,497.636L689.239,497.636z"/>
    <path id="pk" d="M545.85,435.383l1.374,10.771l3.423,0.752l0.32,1.937l-2.455,2.049l4.573,3.691l8.885-3.198l0.709-3.786l5.593-3.491l2.145-8.091l1.599-1.722l-1.659-2.887l5.412-3.347l-0.691-0.968l-2.498,0.155l-0.226,2.299l-3.354-0.033l-0.062-3.068l-1.079-1.288l-1.815,1.649l0.052,1.515l-2.739,1.036l-5.059-0.319l-6.568,6.881L545.85,435.383L545.85,435.383z"/>
    <path id="pl" d="M436.246,400.77l-0.562,1.167l0.483,0.83l2.015-0.415h1.711l1.857,1.572l3.95-0.717l2.904-1.729l0.743-1.167l-0.112-1.504l-2.611-1.954l-3.501,0.035l-0.294,1.988l-3.683,1.797L436.246,400.77L436.246,400.77z"/>
    <path id="pr" d="M192.342,499.429l-0.894,1.793l1.789,2.688l1.342-0.448L192.342,499.429L192.342,499.429z"/>
    <path id="pt" d="M414.019,391.704l-0.554,1.383l5.947,3.925l0.4,0.051l0.375-1.094l0.837-0.588l-1.336-1.499h-0.916l-1.255-1.426L414.019,391.704L414.019,391.704z"/>
    <path id="pw" d="M728.775,668.089l-1.531,6.181l0.304,4.322l4.599-0.312l5.213-8.03L728.775,668.089L728.775,668.089z"/>
    <path id="py" d="M295.375,584.246l1.341-0.837l-0.559-1.256l1.341-1.675l-0.671-2.514l0.782-2.932l3.581-1.675l2.57,2.932l4.59-0.838l0.558-6.344l4.812-1.256l-1.006-1.849l-3.917-1.849l-2.463,0.419l0.894,2.094l-1.229,5.926l-2.015,0.418l-3.692-1.337l-1.118-1.428l-1.118,0.419l-2.463,3.985l-3.028,0.34l-0.448,3.496l-1.893,1.64l0.683,4.832l2.287,1.625l-1.456,4.049L295.375,584.246L295.375,584.246z"/>
    <path id="qa" d="M528.466,468.135l0.753,3.008l8.522,0.752l0.596-6.172l1.644-0.897l0.448-2.257l-2.688,0.753l-2.99,4.521L528.466,468.135L528.466,468.135z"/>
    <path id="re" d="M478.504,538.385l3.691-0.078l-0.959,3.232l-0.935,0.812h-1.142l-0.812-2.187L478.504,538.385L478.504,538.385z"/>
    <path id="ro" d="M457.092,414.066l0.139,4.305l1.452,3.025l5.454,0.095l2.455-1.737l2.412-0.959l-0.588-2.75l0.545-1.469l-1.228-0.641l-1.687,0.139l-1.323,1.332l-5.549,0.043L457.092,414.066L457.092,414.066z"/>
    <path id="rs" d="M442.708,411.084l-0.319,0.527l5.801,5.981l2.127-3.13l-0.078-1.234l-1.857-2.256L442.708,411.084L442.708,411.084z"/>
    <path id="ru" d="M455.752,391.704l-0.139,4.305l1.452,3.025l5.454,0.095l2.455-1.737l2.412-0.959l-0.588-2.75l0.545-1.469l-1.228-0.641l-1.687,0.139l-1.323,1.332l-5.549,0.043L455.752,391.704L455.752,391.704z"/>
    <path id="rw" d="M478.504,538.385l3.691-0.078l-0.959,3.232l-0.935,0.812h-1.142l-0.812-2.187L478.504,538.385L478.504,538.385z"/>
    <path id="sa" d="M528.466,468.135l0.753,3.008l8.522,0.752l0.596-6.172l1.644-0.897l0.448-2.257l-2.688,0.753l-2.99,4.521L528.466,468.135L528.466,468.135z"/>
    <path id="sb" d="M728.775,668.089l-1.531,6.181l0.304,4.322l4.599-0.312l5.213-8.03L728.775,668.089L728.775,668.089z"/>
    <path id="sc" d="M478.504,538.385l3.691-0.078l-0.959,3.232l-0.935,0.812h-1.142l-0.812-2.187L478.504,538.385L478.504,538.385z"/>
    <path id="sd" d="M449.56,522.484l0.104,5.204l1.833-0.052l0.104-5.852l-2.315-3.363l-1.833,0.052L449.56,522.484L449.56,522.484z"/>
    <path id="se" d="M420.575,372.523l-0.554,1.383l5.947,3.925l0.4,0.051l0.375-1.094l0.837-0.588l-1.336-1.499h-0.916l-1.255-1.426L420.575,372.523L420.575,372.523z"/>
    <path id="sg" d="M689.239,497.636l2.426-1.793l-0.536-1.939l-1.792,0.27L689.239,497.636L689.239,497.636z"/>
    <path id="si" d="M442.708,411.084l-0.319,0.527l5.801,5.981l2.127-3.13l-0.078-1.234l-1.857-2.256L442.708,411.084L442.708,411.084z"/>
    <path id="sk" d="M436.246,400.77l-0.562,1.167l0.483,0.83l2.015-0.415h1.711l1.857,1.572l3.95-0.717l2.904-1.729l0.743-1.167l-0.112-1.504l-2.611-1.954l-3.501,0.035l-0.294,1.988l-3.683,1.797L436.246,400.77L436.246,400.77z"/>
    <path id="sl" d="M404.493,493.496l3.146-0.25l5.16,7.295l-4.789,3.613l-3.466-0.892l-4.66,0.062l-0.752,2.73l-3.907,0.19l-1.071-1.461l1.385-4.442L404.493,493.496L404.493,493.496z"/>
    <path id="sm" d="M430.46,403.459l-0.562,1.167l0.483,0.83l2.015-0.415h1.711l1.857,1.572l3.95-0.717l2.904-1.729l0.743-1.167l-0.112-1.504l-2.611-1.954l-3.501,0.035l-0.294,1.988l-3.683,1.797L430.46,403.459L430.46,403.459z"/>
    <path id="sn" d="M404.493,493.496l3.146-0.25l5.16,7.295l-4.789,3.613l-3.466-0.892l-4.66,0.062l-0.752,2.73l-3.907,0.19l-1.071-1.461l1.385-4.442L404.493,493.496L404.493,493.496z"/>
    <path id="so" d="M512.674,502.797l3.526,2.403l1.046-0.052l8.757-3.008l0.994,3.206l-0.701,2.706l-1.893,1.503l-4.729-0.302l-6.769-4.158L512.674,502.797L512.674,502.797z"/>
    <path id="sr" d="M319.95,561.469l0.446,1.256l-1.341,2.514l0.559,1.256l-1.341,1.675l0.671,2.514l-0.782,2.932l-3.581,1.675l-2.57-2.932l-4.59,0.838l-0.558,6.344l-4.812,1.256l1.006,1.849l3.917,1.849l2.463-0.419l-0.894-2.094l1.229-5.926l2.015-0.418l3.692,1.337l1.118,1.428l1.118-0.419l2.463-3.985l3.028-0.34l0.448-3.496l1.893-1.64l-0.683-4.832l-2.287-1.625l1.456-4.049L319.95,561.469L319.95,561.469z"/>
    <path id="st" d="M435.577,544.453l1.504,1.953l1.945-1.842l-0.571-1.909l-0.483-0.035L435.577,544.453L435.577,544.453z"/>
    <path id="sv" d="M208.398,525.172l0.894,0.448l-0.894,1.793l-1.341-1.793L208.398,525.172L208.398,525.172z"/>
    <path id="sy" d="M484.69,432.695l-0.139,4.305l1.452,3.025l5.454,0.095l2.455-1.737l2.412-0.959l-0.588-2.75l0.545-1.469l-1.228-0.641l-1.687,0.139l-1.323,1.332l-5.549,0.043L484.69,432.695L484.69,432.695z"/>
    <path id="sz" d="M465.944,570.624l-0.892,2.236l0.922,3.143l3.447,0.895l2.3-0.067l0.319-0.949l-0.057-0.061l-1.369-2.236l-0.808-1.067l-1.284-0.174l-1.076-0.062L465.944,570.624L465.944,570.624z"/>
    <path id="td" d="M449.56,522.484l0.104,5.204l1.833-0.052l0.104-5.852l-2.315-3.363l-1.833,0.052L449.56,522.484L449.56,522.484z"/>
    <path id="tg" d="M411.512,515.288h1.833l0.104-5.204l2.315-3.363l-0.104-5.852l-2.102-0.052l-3.604,2.816l1.504,2.87L411.512,515.288L411.512,515.288z"/>
    <path id="th" d="M689.239,497.636l2.426-1.793l-0.536-1.939l-1.792,0.27L689.239,497.636L689.239,497.636z"/>
    <path id="tj" d="M545.85,435.383l1.374,10.771l3.423,0.752l0.32,1.937l-2.455,2.049l4.573,3.691l8.885-3.198l0.709-3.786l5.593-3.491l2.145-8.091l1.599-1.722l-1.659-2.887l5.412-3.347l-0.691-0.968l-2.498,0.155l-0.226,2.299l-3.354-0.033l-0.062-3.068l-1.079-1.288l-1.815,1.649l0.052,1.515l-2.739,1.036l-5.059-0.319l-6.568,6.881L545.85,435.383L545.85,435.383z"/>
    <path id="tl" d="M689.239,497.636l2.426-1.793l-0.536-1.939l-1.792,0.27L689.239,497.636L689.239,497.636z"/>
    <path id="tm" d="M545.85,435.383l1.374,10.771l3.423,0.752l0.32,1.937l-2.455,2.049l4.573,3.691l8.885-3.198l0.709-3.786l5.593-3.491l2.145-8.091l1.599-1.722l-1.659-2.887l5.412-3.347l-0.691-0.968l-2.498,0.155l-0.226,2.299l-3.354-0.033l-0.062-3.068l-1.079-1.288l-1.815,1.649l0.052,1.515l-2.739,1.036l-5.059-0.319l-6.568,6.881L545.85,435.383L545.85,435.383z"/>
    <path id="tn" d="M411.512,515.288h1.833l0.104-5.204l2.315-3.363l-0.104-5.852l-2.102-0.052l-3.604,2.816l1.504,2.87L411.512,515.288L411.512,515.288z"/>
    <path id="to" d="M728.775,668.089l-1.531,6.181l0.304,4.322l4.599-0.312l5.213-8.03L728.775,668.089L728.775,668.089z"/>
    <path id="tr" d="M484.69,432.695l-0.139,4.305l1.452,3.025l5.454,0.095l2.455-1.737l2.412-0.959l-0.588-2.75l0.545-1.469l-1.228-0.641l-1.687,0.139l-1.323,1.332l-5.549,0.043L484.69,432.695L484.69,432.695z"/>
    <path id="tt" d="M192.342,499.429l-0.894,1.793l1.789,2.688l1.342-0.448L192.342,499.429L192.342,499.429z"/>
    <path id="tv" d="M728.775,668.089l-1.531,6.181l0.304,4.322l4.599-0.312l5.213-8.03L728.775,668.089L728.775,668.089z"/>
    <path id="tw" d="M635.028,470.506l-0.639,1.166l0.428,0.837l1.995,0.23l0.518-1.066l-0.665-0.9L635.028,470.506L635.028,470.506z"/>
    <path id="tz" d="M478.504,538.385l3.691-0.078l-0.959,3.232l-0.935,0.812h-1.142l-0.812-2.187L478.504,538.385L478.504,538.385z"/>
    <path id="ua" d="M457.092,414.066l0.139,4.305l1.452,3.025l5.454,0.095l2.455-1.737l2.412-0.959l-0.588-2.75l0.545-1.469l-1.228-0.641l-1.687,0.139l-1.323,1.332l-5.549,0.043L457.092,414.066L457.092,414.066z"/>
    <path id="ug" d="M478.504,538.385l3.691-0.078l-0.959,3.232l-0.935,0.812h-1.142l-0.812-2.187L478.504,538.385L478.504,538.385z"/>
    <path id="us" d="M120.987,334.067l-0.671,1.793l1.789,2.688l1.342-0.448l-0.894-1.793l-0.894-0.448l0.447-1.793L120.987,334.067L120.987,334.067z"/>
    <path id="uy" d="M279.05,600.613l1.677,1.571l-6.371,9.467l-2.239,2.479l0.777,10.813l4.918,5.974l-4.132,7.209l-3.129,1.35h-3.579l1.003,5.627l-5.593,1.92l1.34,4.729l-3.354,10.701l4.141,3.38l-2.239,5.515l-3.804,5.975l2.014,4.165l-4.918,0.786l-4.028-4.951l-0.674-15.432l-6.258-26.209l1.893-9.163l-4.028-11.713l2.68-15.204l2.463-2.931l-0.605-2.222l3.164-2.888l7.054,0.483l3.942,4.21l4.555,0.078l4.668,2.853l-1.375,3.217l0.329,3.25l6.612-0.312L279.05,600.613L279.05,600.613z"/>
    <path id="uz" d="M545.85,435.383l1.374,10.771l3.423,0.752l0.32,1.937l-2.455,2.049l4.573,3.691l8.885-3.198l0.709-3.786l5.593-3.491l2.145-8.091l1.599-1.722l-1.659-2.887l5.412-3.347l-0.691-0.968l-2.498,0.155l-0.226,2.299l-3.354-0.033l-0.062-3.068l-1.079-1.288l-1.815,1.649l0.052,1.515l-2.739,1.036l-5.059-0.319l-6.568,6.881L545.85,435.383L545.85,435.383z"/>
    <path id="vc" d="M192.342,499.429l-0.894,1.793l1.789,2.688l1.342-0.448L192.342,499.429L192.342,499.429z"/>
    <path id="ve" d="M223.171,534.192l0.894,0.448l0.894,1.793l-1.342,0.448l-1.789-2.688L223.171,534.192L223.171,534.192z"/>
    <path id="vg" d="M192.342,499.429l-0.894,1.793l1.789,2.688l1.342-0.448L192.342,499.429L192.342,499.429z"/>
    <path id="vi" d="M192.342,499.429l-0.894,1.793l1.789,2.688l1.342-0.448L192.342,499.429L192.342,499.429z"/>
    <path id="vn" d="M689.239,497.636l2.426-1.793l-0.536-1.939l-1.792,0.27L689.239,497.636L689.239,497.636z"/>
    <path id="vu" d="M728.775,668.089l-1.531,6.181l0.304,4.322l4.599-0.312l5.213-8.03L728.775,668.089L728.775,668.089z"/>
    <path id="ws" d="M728.775,668.089l-1.531,6.181l0.304,4.322l4.599-0.312l5.213-8.03L728.775,668.089L728.775,668.089z"/>
    <path id="ye" d="M512.674,502.797l3.526,2.403l1.046-0.052l8.757-3.008l0.994,3.206l-0.701,2.706l-1.893,1.503l-4.729-0.302l-6.769-4.158L512.674,502.797L512.674,502.797z"/>
    <path id="za" d="M465.944,570.624l-0.892,2.236l0.922,3.143l3.447,0.895l2.3-0.067l0.319-0.949l-0.057-0.061l-1.369-2.236l-0.808-1.067l-1.284-0.174l-1.076-0.062L465.944,570.624L465.944,570.624z"/>
    <path id="zm" d="M478.504,538.385l3.691-0.078l-0.959,3.232l-0.935,0.812h-1.142l-0.812-2.187L478.504,538.385L478.504,538.385z"/>
    <path id="zw" d="M478.504,538.385l3.691-0.078l-0.959,3.232l-0.935,0.812h-1.142l-0.812-2.187L478.504,538.385L478.504,538.385z"/>
</g>
</svg>